<?xml version="1.0" encoding="UTF-8"?><svg id="Layer_2" xmlns="http://www.w3.org/2000/svg" viewBox="0 0 448.2 58"><defs><style>.cls-1{fill:#3c3c3b;stroke-width:0px;}</style></defs><g id="Layer_1-2"><path class="cls-1" d="m76.73,18.01h14.65c2.34.06,5.18.13,6.72,2.34.8,1.15.9,2.4.9,3.2,0,.61-.06,1.89-.9,3.01-.93,1.22-2.14,1.6-2.85,1.79,1.41.38,4.9,1.25,4.9,5.76,0,1.31-.29,2.69-1.02,3.81-1.76,2.66-4.67,2.66-6.88,2.69h-15.52v-22.59Zm5.6,8.9h8.1c.67,0,1.31-.03,1.82-.22,1.34-.54,1.34-2.05,1.34-2.3,0-2.4-1.82-2.43-2.72-2.43h-8.54v4.96Zm0,9.73h8.48c1.28,0,3.68.03,3.68-3.07,0-2.72-2.14-2.72-2.98-2.72h-9.18v5.79Z"/><path class="cls-1" d="m107.04,18.01h15.55c2.56,0,4.9.22,6.78,2.4,1.15,1.34,1.47,3.04,1.47,4.35,0,1.73-.58,3.78-2.18,4.99-1.22.93-2.78,1.25-3.68,1.41l6.85,9.44h-6.66l-6.05-9.09h-6.43v9.09h-5.66v-22.59Zm5.66,9.5h9.02c1.22,0,3.39-.16,3.39-2.69,0-.45-.06-1.22-.45-1.76-.42-.54-.96-1.09-3.2-1.09h-8.77v5.54Z"/><path class="cls-1" d="m137.27,18.01h21.05v4.06h-15.39v5.09h14.88v4h-14.88v5.41h16.03v4.03h-21.69v-22.59Z"/><path class="cls-1" d="m165.56,18.01h5.63l11.07,12.58c1.34,1.57,1.6,1.89,3.01,3.65-.19-2.14-.19-2.72-.22-4.67v-11.55h5.41v22.59h-5.6l-11.2-12.74c-1.18-1.38-1.66-1.95-2.91-3.55.16,1.73.16,2.11.19,3.84v12.45h-5.38v-22.59Z"/><path class="cls-1" d="m222.1,21.69c.93,1.12,2.43,3.62,2.43,7.39,0,7.2-4.67,12.26-13.79,12.26s-13.95-4.96-13.95-12c0-7.78,5.57-11.71,12.99-12.03,4.45-.19,9.5.96,12.32,4.38Zm-19.49,7.78c0,2.75,1.02,4.19,1.44,4.74.54.77,2.21,3.1,6.59,3.1,5.28,0,8.1-3.58,8.1-7.94,0-5.06-3.81-8.16-8.32-8-3.78.13-7.81,2.62-7.81,8.1Z"/><path class="cls-1" d="m243.74,18.01h20.89v4.06h-15.26v5.79h14.37v4h-14.37v8.74h-5.63v-22.59Z"/><path class="cls-1" d="m269.34,18.01h5.66v22.59h-5.66v-22.59Z"/><path class="cls-1" d="m282.94,18.01h15.55c2.56,0,4.9.22,6.78,2.4,1.15,1.34,1.47,3.04,1.47,4.35,0,1.73-.58,3.78-2.18,4.99-1.22.93-2.78,1.25-3.68,1.41l6.85,9.44h-6.66l-6.05-9.09h-6.43v9.09h-5.66v-22.59Zm5.66,9.5h9.02c1.22,0,3.39-.16,3.39-2.69,0-.45-.06-1.22-.45-1.76-.42-.54-.96-1.09-3.2-1.09h-8.77v5.54Z"/><path class="cls-1" d="m313.18,18.01h8.16l5.89,13.82c.61,1.47.83,2.08,1.15,3.36.22-.96.42-1.54,1.06-3.1l5.89-14.08h8.09v22.59h-5.34v-15.81c0-.67.1-1.25.22-2.11-.22.67-.32.93-.64,1.73l-6.75,16.19h-5.15l-6.75-15.87c-.35-.86-.42-1.12-.67-2.05.1.96.13,1.15.19,2.02v15.9h-5.34v-22.59Z"/><path class="cls-1" d="m351.48,18.01h5.66v22.59h-5.66v-22.59Z"/><path class="cls-1" d="m365.05,18.01h5.63l11.07,12.58c1.34,1.57,1.6,1.89,3.01,3.65-.19-2.14-.19-2.72-.22-4.67v-11.55h5.41v22.59h-5.6l-11.2-12.74c-1.18-1.38-1.66-1.95-2.91-3.55.16,1.73.16,2.11.19,3.84v12.45h-5.38v-22.59Z"/><path class="cls-1" d="m421.59,21.69c.93,1.12,2.43,3.62,2.43,7.39,0,7.2-4.67,12.26-13.79,12.26s-13.95-4.96-13.95-12c0-7.78,5.57-11.71,12.99-12.03,4.45-.19,9.5.96,12.32,4.38Zm-19.49,7.78c0,2.75,1.02,4.19,1.44,4.74.54.77,2.21,3.1,6.59,3.1,5.28,0,8.1-3.58,8.1-7.94,0-5.06-3.81-8.16-8.32-8-3.78.13-7.81,2.62-7.81,8.1Z"/><path class="cls-1" d="m0,0v58h448.2V0H0Zm15.42,5h5.68v14.69l-5.68,3.54V5Zm21.08,14.63V5h5.69v18.17l-5.69-3.54Zm4.72,8.16h-24.73l12.37-7.7,12.36,7.7Zm-9.57-11.19l-2.14-1.33h-1.31l-2.24,1.39V5h5.69v11.6Zm16.22,16.05v4.86H9.74v-4.86h38.13Zm1.74-4.86l-2.56-1.59V5h5.68v22.79h-3.12ZM10.56,5v21.26l-2.46,1.53h-3.1V5h5.56Zm432.64,48H57.59V5h385.61v48Z"/></g></svg>