<?xml version="1.0" encoding="UTF-8"?><svg id="Layer_2" xmlns="http://www.w3.org/2000/svg" viewBox="0 0 164.2 58"><defs><style>.cls-1{fill:#3c3c3b;stroke-width:0px;}</style></defs><g id="Layer_1-2"><path class="cls-1" d="m0,0v58h164.2V0H0Zm9.63,37.51v-4.86h38.13v4.86H9.63Zm32.45-14.34l-5.69-3.54V5h5.69v18.17Zm-10.54-6.57l-2.14-1.33h-1.31l-2.24,1.39V5h5.69v11.6Zm-10.55,3.09l-5.68,3.54V5h5.68v14.69Zm7.76.4l12.36,7.7h-24.73l12.37-7.7Zm20.75,7.7l-2.56-1.59V5h5.68v22.79h-3.12ZM10.45,5v21.26l-2.46,1.53h-2.99V5h5.45Zm148.75,48H57.48V5h101.72v48Z"/><path class="cls-1" d="m79.7,17.94h14.81c2.36.06,5.24.13,6.79,2.36.81,1.16.91,2.42.91,3.23,0,.61-.06,1.91-.91,3.04-.94,1.23-2.17,1.62-2.88,1.81,1.42.39,4.95,1.26,4.95,5.82,0,1.33-.29,2.72-1.03,3.85-1.78,2.68-4.72,2.68-6.95,2.72h-15.68v-22.83Zm5.66,8.99h8.18c.68,0,1.33-.03,1.84-.23,1.36-.55,1.36-2.07,1.36-2.33,0-2.42-1.84-2.46-2.75-2.46h-8.63v5.01Zm0,9.83h8.57c1.29,0,3.72.03,3.72-3.1,0-2.75-2.17-2.75-3.01-2.75h-9.28v5.85Z"/><path class="cls-1" d="m118.41,17.94h21.11v4.11h-15.42v5.85h14.52v4.04h-14.52v8.83h-5.69v-22.83Z"/></g></svg>